<svg width="63" height="61" viewBox="0 0 63 61" fill="none" xmlns="http://www.w3.org/2000/svg">
<g clip-path="url(#clip0_18_1879)">
<path fill-rule="evenodd" clip-rule="evenodd" d="M39.7504 7.63611L27.9995 17.3368L26.5369 15.8748L38.3278 6.36573L37.6995 5.73153L25.8146 15.1537L24.294 13.6344L36.413 4.29716L39.7504 7.63611Z" fill="white"/>
<path fill-rule="evenodd" clip-rule="evenodd" d="M9.79803 32.1151L25.1684 19.4508L23.6718 17.9572L8.21938 30.2995L7.40904 29.4993L22.9314 17.2203L21.3748 15.6674L5.52026 27.8575L9.79803 32.1151Z" fill="white"/>
<path fill-rule="evenodd" clip-rule="evenodd" d="M35.4687 3.34882L23.2296 12.5951L21.761 11.1272L34.0401 2.07054L33.4078 1.43634L21.0367 10.4041L19.5101 8.87883L32.1193 -9.53674e-07L35.4687 3.34882Z" fill="white"/>
<path fill-rule="evenodd" clip-rule="evenodd" d="M4.29577 26.6819L20.3124 14.6084L18.8078 13.1088L2.71512 24.8663L1.90279 24.0622L18.0655 12.3699L16.5048 10.8111L0 22.4105L4.29577 26.6819Z" fill="white"/>
<path fill-rule="evenodd" clip-rule="evenodd" d="M63 30.5543L53.8462 42.701L52.4116 41.2666L61.6234 29.3254L61.0051 28.7051L51.7013 40.5652L50.2107 39.0756L59.7246 27.2806L63 30.5543Z" fill="white"/>
<path fill-rule="evenodd" clip-rule="evenodd" d="M39.8504 61L51.7133 45.2892L50.0366 43.6197L49.9826 43.6888L50.1947 43.8923L38.2798 59.1942L37.4875 58.4138L49.4644 43.1771L49.5464 43.2502L49.6005 43.1831L47.9978 41.5847L35.6687 56.8372L39.8504 61Z" fill="white"/>
<path fill-rule="evenodd" clip-rule="evenodd" d="M58.7983 26.3263L49.1723 38.0304L47.5616 36.4202L47.6197 36.353L47.7897 36.5229L57.4137 25.0895L56.7934 24.4672L47.0834 35.8137L47.1675 35.9006L47.1094 35.9697L45.5268 34.3892L55.5149 23.0407L58.7983 26.3263Z" fill="white"/>
<path fill-rule="evenodd" clip-rule="evenodd" d="M34.4482 55.6656L46.9294 40.5218L45.3147 38.9096L45.2127 39.0301L45.3747 39.1506L32.8776 53.8598L32.0833 53.0754L44.6304 38.4473L44.8265 38.6231L44.9186 38.5164L43.2018 36.8035L30.2525 51.4889L34.4482 55.6656Z" fill="white"/>
<path fill-rule="evenodd" clip-rule="evenodd" d="M52.4757 41.1836L52.4156 41.2607L52.2416 41.0928L51.3492 42.2426L51.0571 41.9522L50.7209 42.1083L50.6349 42.2189L50.777 42.3592L50.4949 42.7207L50.6269 42.8511L49.9806 43.679L49.5425 43.2423L50.1807 42.4303V42.1834L45.919 37.9316L45.913 38.1983L45.2247 39.0104L44.8265 38.6152L45.5428 37.7795L45.4808 37.5444L44.2463 36.3115L44.9606 35.4976L46.3371 36.8726L47.1715 35.8947L47.6257 36.3471L46.7713 37.3527L47.0414 37.6234L47.6177 37.1532L47.3115 37.9909L47.5196 37.9059L48.448 37.981L48.1159 38.6962L51.0671 41.642L51.8214 40.6798L51.7054 40.5593L51.7694 40.4783L52.4757 41.1836Z" fill="white"/>
<path fill-rule="evenodd" clip-rule="evenodd" d="M17.9814 12.4173L18.0695 12.3541L18.1815 12.4628L19.414 11.5717L19.7142 11.8701L20.1243 11.7811L20.2404 11.6962L20.0963 11.552L20.4685 11.2813L20.3364 11.1489L21.1908 10.5286L21.0487 10.3883L21.1247 10.333L21.849 11.0541L21.773 11.1114L21.629 10.9672L20.7926 11.5796L20.7606 11.795L25.0784 16.104L25.1084 15.861L25.8647 15.2604L25.7787 15.1754L25.8407 15.124L26.567 15.8432L26.503 15.8946L26.2589 15.6535L25.4765 16.2798L25.5246 16.4991L27.0772 18.0501L26.2309 18.7475L24.5121 17.0326L23.5417 17.809L23.6898 17.9552L23.6118 18.0165L22.8735 17.2795L22.9495 17.2183L23.0715 17.3388L24.074 16.5446L23.7958 16.268L23.0876 16.6453L23.5297 15.9025L23.2816 15.9578L22.2292 15.7879L22.6934 15.1695L19.6581 12.1407L18.6197 12.8994L18.8118 13.093L18.7218 13.1582L17.9814 12.4173Z" fill="white"/>
<path fill-rule="evenodd" clip-rule="evenodd" d="M40.6308 33.4586L40.9389 33.1247L41.3871 33.5712L41.7953 33.1287L41.7393 33.0753L41.9734 32.8224L42.0174 32.8659L42.3675 32.4826L42.6016 32.4807L42.6456 32.6189L42.7697 32.6387L42.7297 32.86L43.0838 32.7889L43.0998 32.9331L43.2679 32.9272L43.3239 33.1326L43.1538 33.3203L43.2079 33.3915L43.1378 33.4685L43.548 33.8795L43.544 34.0533L43.7681 33.8024L43.9622 33.8123L44.0482 34.0296L44.1442 34.0039L44.1543 34.3872L44.2043 34.4366L44.3843 34.2351L44.5184 34.2292L44.5504 34.401H44.7605L44.8065 34.6124L44.7405 34.8594L45.1667 35.2862L43.8841 36.7502L43.48 36.3649L43.0078 36.3866L43.0138 36.2128L42.8217 36.1298L42.7677 35.9757L42.8517 35.8808L42.5236 35.8315L42.4816 35.6201L42.3635 35.5924L42.3255 35.4047L42.4075 35.3118L42.4115 35.1735L42.0794 34.8416L41.8893 34.7349L41.7453 34.895L41.6672 34.8159L41.5632 34.8732L41.5332 34.6737L41.3931 34.6875L41.4031 34.5354L41.3411 34.482L41.3451 34.3437L41.109 34.4287L41.101 34.2074L41.003 34.2331L40.9709 34.0138L41.069 33.9071L40.6308 33.4586Z" fill="white"/>
<path fill-rule="evenodd" clip-rule="evenodd" d="M40.7108 32.4115L39.4283 31.1332L39.3622 31.1984L39.2462 31.0838L39.1101 31.3486L39.4063 31.6469L39.5503 31.3841L39.7064 31.5382L39.3622 32.0934L31.1148 40.7529L30.7987 42.0707L39.7944 32.5518L40.2586 32.287L40.2106 32.4905L40.5427 32.8224L40.6488 32.4826L40.7108 32.4115Z" fill="white"/>
<path fill-rule="evenodd" clip-rule="evenodd" d="M31.447 23.1454L30.1564 21.8592L30.0864 21.9185L29.9664 21.8019L29.8143 22.0529L30.1104 22.3532L30.2725 22.1062L30.4285 22.2603L30.0484 22.7799L21.0547 30.7539L20.6685 32.0104L30.4826 23.2403L30.9788 23.0071L30.9207 23.2007L31.2549 23.5346L31.3789 23.2106L31.447 23.1454Z" fill="white"/>
<path fill-rule="evenodd" clip-rule="evenodd" d="M28.9059 20.5572L29.6523 19.9171L42.2915 32.536L41.6292 33.2551L28.9059 20.5572Z" fill="white"/>
<path fill-rule="evenodd" clip-rule="evenodd" d="M37.7296 29.3887L37.3574 29.764L37.4074 29.8154L37.1353 30.09L37.0513 30.0051L37.1393 29.9162L34.1381 26.923L33.4858 26.271L33.3517 25.0065L37.7296 29.3887Z" fill="white"/>
<path fill-rule="evenodd" clip-rule="evenodd" d="M34.088 27.1166L34.3361 27.4288L34.2521 27.5117L33.8179 27.3082L33.3097 27.7943L33.2237 27.7093L32.9656 27.9582L33.0456 28.0373L32.9836 28.0946L32.6334 27.7429C32.6334 27.7429 32.9356 27.3319 32.6515 27.0494C32.3693 26.7669 32.0772 26.9427 31.9352 27.0751C31.7931 27.2075 31.609 27.5453 31.8771 27.814C32.1452 28.0807 32.4554 27.8535 32.4554 27.8535L32.8215 28.219L32.1132 28.8928L32.3513 29.3946L31.9652 29.9122C31.9652 29.9122 31.2829 29.9023 30.8547 30.3133C30.4225 30.7242 30.5126 31.1273 30.5126 31.1273L30.3525 31.2834L30.1044 31.2577L29.056 32.2633L29.098 32.3028L28.9479 32.449L28.8899 32.3898L28.4777 32.7829L28.3717 32.6762L27.6094 33.4073L27.7294 33.5258L27.4293 33.8142L27.0111 33.9446L26.8471 34.1007L26.833 34.4781C26.833 34.4781 26.5889 34.3378 26.1468 34.7586C25.7046 35.1834 25.8506 35.0194 25.8506 35.0194L24.9723 34.1481L24.6521 34.4504L25.5565 35.3474L25.4545 35.541L25.3724 36.0824L25.0903 36.1752L24.268 36.9675L24.0719 36.7719L24.172 36.6751L19.7061 32.2515L19.2559 32.3641L23.8778 36.9438L23.9699 36.8687L24.1419 37.0406L23.5417 37.6155L22.8054 37.898L20.5164 40.0891C20.5164 40.0891 20.5705 40.4803 20.6925 40.5988L20.9846 40.8873L20.7745 41.2903L21.1247 41.8455L21.3728 42.1537L21.3508 42.3256L21.6749 42.6457L22.0171 42.3098L21.7389 42.0332H21.4948L21.2627 41.723L20.9906 41.2291L21.1867 41.073C21.1867 41.073 21.6269 41.4919 21.769 41.5175C21.905 41.5432 22.0351 41.5432 22.0351 41.5432L24.264 39.3581L24.4841 38.5797L25.0803 37.9988L25.3464 38.2616L25.2684 38.3366L29.8803 42.9045L30.0024 42.4501L25.5725 38.062L25.4505 38.1825L25.2464 37.983L26.0027 37.2441L25.9867 37.3923L26.1728 37.4278L26.4229 36.8568L26.695 36.7956L26.4729 38.9195L26.623 39.0341L26.8951 36.7047L27.8275 37.5997L28.0656 37.3646L27.1692 36.4755C27.1692 36.4755 27.5994 36.1851 27.6354 35.9717C27.6694 35.7583 27.7654 35.4758 27.7654 35.4758L31.587 35.1577L31.6931 34.9523L28.4077 35.2763L28.7879 34.5354L28.9199 34.6658L29.6242 33.9763L29.5001 33.8518L29.8983 33.4626L30.0204 33.2749L30.0864 33.3401L31.1508 32.2969L31.1788 31.9808L31.2909 31.8741C31.2909 31.8741 31.7991 31.9037 32.1492 31.5619C32.6194 31.0996 32.5214 30.4931 32.5214 30.4931L32.6434 30.3745L33.1957 30.0742L33.4938 30.3706L34.022 29.8846L34.1421 29.8589L34.034 30.0663L33.6859 30.4062L34.2721 30.9752L34.9024 30.5543L35.1425 30.5188L35.9908 31.3505C35.9908 31.3505 36.1389 31.2241 36.325 31.0344C36.513 30.8467 36.6071 30.6946 36.6071 30.6946L36.513 30.5622L36.5991 30.339L36.355 30.0979L36.2529 30.2007L36.1909 30.1394L36.301 30.0288L35.8328 29.5625L36.1049 29.1674L36.2289 29.2919L36.2809 29.2385L35.7867 28.7466L35.8688 28.6636L35.7847 28.5786L35.5346 28.6241L34.9424 28.9836L35.1465 28.7367L35.0504 28.1776L35.5707 28.3672L34.1321 26.9309L34.088 27.1166Z" fill="white"/>
<path fill-rule="evenodd" clip-rule="evenodd" d="M35.7888 33.6562L33.1837 31.0621L32.9076 31.3347L31.1128 29.5487L31.401 29.2721L28.7839 26.6661L27.4373 27.8911L30.0804 30.5207L30.4145 30.2027L32.2393 32.0164L31.9092 32.3423L34.5322 34.9503L35.7888 33.6562Z" fill="white"/>
<path fill-rule="evenodd" clip-rule="evenodd" d="M35.4686 25.7138L35.4827 25.698L36.9012 24.3447L37.1313 24.5502L37.3654 24.564L37.3054 24.238L37.1794 24.0997L37.8056 23.4991L35.0265 20.7173L34.6363 20.6659L35.2285 20.0989L35.2426 19.8598L34.9824 19.6385L34.8104 19.763L34.8704 19.8005L34.2341 20.3715L33.984 20.1206L34.7483 19.437L34.6343 19.3244L34.5002 19.4429L34.5323 19.4864L33.958 19.9981L33.7139 19.7413L34.2461 19.2691L34.3262 19.2671L34.4722 19.1387L34.3262 18.9925L34.1821 19.1209L34.2141 19.1545L33.6239 19.6761L33.3578 19.4094L33.934 18.8996L33.962 18.9273L34.0941 18.8087L33.976 18.6902L33.854 18.7949L33.872 18.8127L33.2217 19.3837L32.9756 19.1387L33.6739 18.3524L33.7359 18.297L33.5859 18.1449L32.6855 18.9312L32.2053 18.8364L31.9912 18.2239L32.2533 17.4198L32.3894 17.3052L33.2477 17.1808L33.81 17.3902L33.864 17.4455L33.94 17.813L33.7319 17.9967L33.974 18.06L34.3242 17.7517L33.5419 16.9792L33.3378 17.1531L32.7415 16.509L32.8696 16.4004L33.3858 16.8923L33.5018 16.8113L33.7419 17.0484L34.0361 16.7935L34.6803 17.4416L34.7363 17.3922L34.8164 17.4712L35.5447 16.835L35.7948 17.0859L35.0505 17.7419L35.1625 17.8545L35.2826 17.7517L35.2546 17.7241L35.8328 17.2143L36.0769 17.4593L35.5147 17.9612L35.4766 17.9236L35.3586 18.0264L35.4827 18.1508L36.1729 17.5561L36.413 17.7972L35.8708 18.2812L35.8268 18.2397L35.6787 18.3701L35.7988 18.4887L36.5371 17.8288L36.7832 18.0738L36.0209 18.7574L36.0329 19.1347L36.333 19.1308L36.429 18.9925L36.5451 18.8878L36.6771 19.0656L36.5311 19.0952L36.5291 19.2908C36.5291 19.2908 37.0933 19.3422 37.2454 19.7887C37.3994 20.2332 37.3654 20.2332 37.3654 20.2332L39.2842 22.1299L39.1562 22.2504L39.5563 22.5092L39.6864 22.2899L39.8465 22.1141L39.9505 22.1931L40.4387 21.8158L40.7448 21.962L40.9349 22.2899L40.6128 22.6021L40.5167 22.8886L40.3527 23.0466L40.1966 23.1257L40.3246 23.2541L40.4367 23.4833L40.6908 23.4734L42.2835 25.0678L41.9373 25.6882L41.9933 25.7297L42.0574 25.6664L42.3355 25.945L42.2655 26.0161L42.6996 26.4528L42.3175 26.8459L42.1614 26.8538L41.7712 26.4646L41.3231 26.0181L40.8269 26.5199L40.3887 26.0813L40.2326 26.2354L40.1086 26.111L40.2626 25.945L39.2522 24.9571L39.1902 24.726L38.4979 25.3938L38.0177 25.216L38.1758 25.7672L37.6616 26.2908L38.1197 26.7432L38.0997 27.0751L38.3298 27.5295L37.6656 27.4051L37.4315 27.6441L35.4686 25.7138Z" fill="white"/>
<path fill-rule="evenodd" clip-rule="evenodd" d="M29.5862 19.9843L29.5042 19.9013L28.9119 19.7729L28.7719 19.6346L28.9439 19.4864L28.8619 19.273L28.5598 18.9727L28.8159 18.7554L28.5558 18.4946L28.6358 18.4274L28.1436 18.4136L27.8215 18.0916L27.0752 18.056L26.2288 18.7534L26.5569 19.4963L26.0167 19.9468L26.2468 20.1759L26.3449 20.093L26.4469 20.1937L26.3589 20.2668L26.617 20.2767L26.711 20.0692L26.8471 20.1898L27.0852 20.2154L27.4653 20.0831L27.5394 20.1562L27.4713 20.2135L27.6274 20.3715L27.8095 20.4525L28.7058 20.6738L28.3077 21.0749L28.4337 21.2013L29.11 20.7548L28.9159 20.5612L29.5862 19.9843Z" fill="white"/>
<path fill-rule="evenodd" clip-rule="evenodd" d="M40.2106 25.8917L40.0686 25.8996L39.8245 26.1505L40.0586 26.3856L39.8945 26.8005L39.7724 26.7748L39.6904 27.0139L39.7824 27.1186L39.5624 27.3932L39.4803 27.6678C39.4803 27.6678 39.6124 27.7923 39.5984 27.8061C39.5844 27.8199 39.3943 28.0649 39.3943 28.0649L39.3183 27.7271L39.4723 27.2588L39.4163 27.1443L39.7024 26.512L39.8345 26.4468L39.8625 26.35L39.7544 26.2433L39.6184 26.3816L39.4723 26.4567L39.3803 26.6108L38.8901 27.1067L38.5799 27.2509L38.1518 27.249L38.1118 27.081L38.4579 26.9447L39.0922 26.3125L39.2382 26.2789L39.2222 26.1663L39.6584 25.7L39.8725 25.7771L39.9825 25.6684L40.2106 25.8917Z" fill="white"/>
<path fill-rule="evenodd" clip-rule="evenodd" d="M39.9105 29.7245L39.6144 29.1555L39.7624 29.7818L39.9025 29.7068M39.1342 28.0274L38.9241 27.2845L38.758 27.3794L39.1342 28.0274ZM40.1286 29.7739L39.7544 30.0011L39.5803 29.8273L39.3703 28.8453L38.5219 27.2885L38.9061 27.1304L39.0641 26.9625L39.5643 28.707L40.1286 29.7739Z" fill="white"/>
</g>
<defs>
<clipPath id="clip0_18_1879">
<rect width="63" height="61" fill="white"/>
</clipPath>
</defs>
</svg>
