<svg width="706" height="530" viewBox="0 0 706 530" fill="none" xmlns="http://www.w3.org/2000/svg">
<path fill-rule="evenodd" clip-rule="evenodd" d="M58.941 29.7059H647.176C649.811 29.7059 652.365 30.0523 654.795 30.7021L430.895 254.601L384.255 301.242C367.026 318.471 339.092 318.471 321.863 301.242L275.222 254.601L51.3227 30.7021C53.7525 30.0523 56.3063 29.7059 58.941 29.7059ZM30.5254 51.4994C29.8756 53.9292 29.5292 56.4829 29.5292 59.1176V470.882C29.5292 473.517 29.8756 476.071 30.5254 478.501L244.026 265L30.5254 51.4994ZM51.3227 499.298C53.7525 499.948 56.3063 500.294 58.9409 500.294H647.176C649.811 500.294 652.365 499.948 654.794 499.298L441.294 285.797L405.052 322.039C376.337 350.754 329.78 350.754 301.065 322.039L264.823 285.797L51.3227 499.298ZM675.592 478.501C676.242 476.071 676.588 473.517 676.588 470.882V59.1177C676.588 56.483 676.242 53.9292 675.592 51.4994L462.091 265L675.592 478.501ZM0.117432 59.1176C0.117432 26.6303 26.4536 0.294128 58.941 0.294128H647.176C679.664 0.294128 706 26.6303 706 59.1177V470.882C706 503.37 679.664 529.706 647.176 529.706H58.9409C26.4536 529.706 0.117432 503.37 0.117432 470.882V59.1176Z" fill="white"/>
</svg>
