<svg width="224" height="292" viewBox="0 0 224 292" fill="none" xmlns="http://www.w3.org/2000/svg">
<path d="M126.435 178.272H126.662C129.557 178.323 132.495 178.478 135.337 178.637L136.14 178.679C138.797 178.73 141.565 178.773 144.391 178.773C146.178 178.773 147.984 178.757 149.79 178.713H149.983L150.004 178.514C150.198 176.578 150.306 174.967 150.345 173.439V173.209H150.124C148.143 173.173 146.162 173.123 144.174 173.074C138.455 172.933 132.539 172.786 126.715 172.952H126.498V173.178C126.533 174.99 126.51 176.58 126.422 178.038L126.435 178.272Z" fill="white"/>
<path d="M126.725 171.731C132.535 171.565 138.44 171.711 144.153 171.851C146.824 171.917 149.578 171.984 152.305 172.021H152.515L152.525 171.8C152.546 171.307 152.559 170.782 152.559 170.457V170.238L150.697 170.161C142.822 169.838 134.681 169.506 126.701 169.84H126.491V170.059C126.491 170.298 126.491 170.537 126.491 170.778C126.491 171.019 126.491 171.254 126.491 171.492V171.725L126.725 171.731Z" fill="white"/>
<path d="M130.073 208.214L130.162 208.249L130.248 208.205C130.301 208.172 130.361 208.153 130.423 208.151H153.255L152.94 207.773C152.896 207.713 152.865 207.643 152.85 207.57C152.835 207.496 152.836 207.419 152.853 207.346L152.863 207.295L152.849 207.243C152.843 207.214 152.835 207.184 152.825 207.156V206.862H152.606C150.844 206.862 149.102 206.868 147.38 206.878C141.031 206.906 135.029 206.937 128.853 206.561L128.647 206.55L128.622 206.764C128.591 207.045 128.578 207.342 128.568 207.625V207.824L128.753 207.859C129.203 207.934 129.645 208.053 130.073 208.214Z" fill="white"/>
<path d="M132.39 211.333H132.416H132.444C140.996 211.275 149.12 211.266 156.622 211.266H156.841V211.038C156.845 211.016 156.845 210.994 156.841 210.972V210.771L156.648 210.746C156.078 210.673 155.598 210.611 155.11 210.516C155.012 210.504 154.921 210.458 154.851 210.385C154.782 210.312 154.739 210.216 154.729 210.114L154.706 210.03L154.59 209.91H130.881L130.871 210.127C130.86 210.328 130.832 210.519 130.799 210.76L130.768 210.979L130.976 211.019C131.527 211.129 131.977 211.227 132.39 211.333Z" fill="white"/>
<path d="M127.668 204.949C127.817 204.979 127.973 205.01 128.078 205.039C128.168 205.067 128.246 205.128 128.297 205.21L128.445 205.324H128.528C133.193 205.621 137.745 205.689 142.416 205.689C144.049 205.689 145.702 205.684 147.375 205.674L150.679 205.661L150.611 205.378C150.599 205.318 150.599 205.256 150.611 205.196V205.161L150.588 205.053C150.588 205.035 150.578 205.012 150.578 205.002L150.529 204.626C150.494 204.365 150.46 204.106 150.415 203.84L150.383 203.657H150.208C148.474 203.657 146.74 203.651 145.007 203.637C139.182 203.612 133.153 203.581 127.213 203.78H127.002V204.134C127.001 204.283 127.008 204.432 127.023 204.581C127.014 204.818 127.205 204.856 127.668 204.949Z" fill="white"/>
<path d="M122.614 178.045V178.283H122.844C123.703 178.259 124.41 178.255 125.061 178.261H125.269L125.281 178.043C125.369 176.594 125.393 175.014 125.357 173.211L125.341 172.977L125.117 172.988C124.242 173.034 123.367 173.078 122.504 173.132L122.243 173.149L122.305 173.413C122.59 174.938 122.694 176.494 122.614 178.045Z" fill="white"/>
<path d="M132.33 214.498C132.258 214.504 132.185 214.494 132.117 214.467C132.048 214.44 131.987 214.398 131.937 214.343C131.873 214.289 131.821 214.222 131.782 214.146C131.744 214.071 131.72 213.988 131.713 213.903V212.669C131.713 212.372 131.41 212.304 130.362 212.142C130.155 212.109 129.952 212.076 129.786 212.043C129.593 212.007 129.546 211.915 129.532 211.886C129.503 211.786 129.493 211.681 129.504 211.577C129.515 211.474 129.546 211.373 129.595 211.282L129.613 211.238V211.071C129.686 210.562 129.722 210.048 129.721 209.534V209.371L129.571 209.322C129.033 209.138 128.478 209.011 127.915 208.944C127.762 208.943 127.616 208.881 127.506 208.77C127.395 208.659 127.33 208.509 127.324 208.349C127.324 208.264 127.34 208.18 127.371 208.101L127.387 208.021C127.398 207.468 127.44 206.916 127.514 206.367L127.541 206.165L127.35 206.116C126.967 206.012 126.579 205.929 126.188 205.867C126.129 205.856 126.074 205.831 126.025 205.796C125.976 205.76 125.935 205.714 125.904 205.661C125.807 205.51 125.769 205.326 125.798 205.147L125.882 204.953L125.84 204.867C125.802 204.781 125.785 204.687 125.789 204.592C125.789 204.592 125.789 204.34 125.799 204.022V203.816L125.603 203.789C124.612 203.624 123.609 203.545 122.606 203.553H122.403L122.392 203.767C122.333 205.099 122.32 206.453 122.308 207.765C122.298 208.806 122.287 209.846 122.254 210.884V211.027L122.376 211.092C122.592 211.211 122.768 211.396 122.88 211.622L122.935 211.724L123.045 211.738C123.203 211.758 123.356 211.803 123.5 211.874C125.529 212.85 127.61 213.703 129.733 214.429C130.773 214.806 131.849 215.197 132.896 215.611L133.144 215.711L133.188 215.438C133.206 215.31 133.217 215.182 133.219 215.053C133.219 214.969 133.219 214.885 133.233 214.801L133.253 214.607L133.078 214.556C132.833 214.494 132.581 214.474 132.33 214.498Z" fill="white"/>
<path d="M123.022 202.331H123.237C123.5 202.342 123.762 202.352 124.028 202.374L124.263 202.394V202.148C124.273 198.863 124.317 195.518 124.359 192.284C124.412 188.234 124.466 184.046 124.455 179.931V179.702H124.238H123.607L122.943 179.69C122.907 179.679 122.869 179.674 122.831 179.673H122.595L122.613 179.92C123.083 186.32 123.216 193.37 123.029 202.101L123.022 202.331Z" fill="white"/>
<path d="M125.099 169.919C123.82 169.984 122.513 170.076 121.213 170.187L121.022 170.203L121.011 170.402C120.987 170.869 121.014 171.337 121.09 171.798L121.125 171.999L121.321 171.986C122.469 171.906 123.715 171.838 125.129 171.775H125.339V171.556C125.339 171.322 125.339 171.087 125.339 170.855C125.339 170.623 125.339 170.389 125.339 170.156V169.917L125.099 169.919Z" fill="white"/>
<path d="M125.467 196.518C125.446 198.462 125.425 200.409 125.414 202.342V202.542L126.067 202.643H126.106L126.239 202.603C131.237 202.409 136.264 202.407 140.947 202.42H141.164V202.192C141.164 201.073 141.154 199.953 141.142 198.834C141.135 198.104 141.128 197.378 141.122 196.655L141.11 196.394L140.86 196.434C140.8 196.434 140.75 196.45 140.706 196.452C136.968 196.095 133.211 196.014 129.462 196.211C128.204 196.248 126.944 196.283 125.684 196.295H125.47L125.467 196.518Z" fill="white"/>
<path d="M125.486 195.084H125.708C127.003 195.071 128.297 195.034 129.592 194.996C130.727 194.965 131.867 194.932 132.999 194.917H133.235L133.214 194.671C133.076 193.052 132.952 191.32 132.81 189.054L132.796 188.831H132.582C130.061 188.942 127.824 189.11 125.747 189.344L125.554 189.366L125.486 195.084Z" fill="white"/>
<path d="M150.049 213.974C152.702 214.067 155.444 214.157 158.143 214.219H158.367V213.985C158.367 213.959 158.367 213.932 158.367 213.905C158.367 213.877 158.367 213.824 158.367 213.786V213.604L158.136 213.545C157.974 213.5 157.808 213.471 157.641 213.458C157.497 213.446 157.363 213.377 157.266 213.267C157.168 213.156 157.115 213.011 157.116 212.861L157.163 212.815V212.478H156.944C149.871 212.478 141.567 212.478 133.615 212.545H133.398V213.116C133.398 213.299 133.554 213.366 133.788 213.461L133.905 213.507V213.589L134.047 213.7H134.124C139.435 213.602 144.839 213.792 150.049 213.974Z" fill="white"/>
<path d="M125.57 188.161L125.815 188.134C128.234 187.856 130.661 187.716 132.505 187.623L132.728 187.612L132.714 187.382C132.638 186.141 132.566 184.899 132.498 183.655C132.43 182.445 132.362 181.234 132.287 180.024L132.274 179.816H132.073C129.798 179.766 127.765 179.737 125.836 179.726H125.616V179.956C125.626 182.254 125.616 184.701 125.574 187.909L125.57 188.161Z" fill="white"/>
<path d="M144.106 180.181L142.134 180.139V180.372C142.144 184.022 142.186 187.74 142.228 191.322C142.27 194.881 142.314 198.562 142.325 202.181V202.404H142.538C143.147 202.414 143.744 202.415 144.342 202.415H144.559V202.188C144.605 194.463 144.46 187.329 144.111 180.379L144.106 180.181Z" fill="white"/>
<path d="M159.198 155.061H159.422V154.829C159.418 154.688 159.399 154.547 159.366 154.41C159.337 154.281 159.32 154.15 159.315 154.017C159.315 153.857 159.315 153.703 159.315 153.557C159.337 153.303 159.329 153.047 159.293 152.795L159.263 152.621L159.088 152.608C144.038 151.459 128.566 151.437 113.588 151.417C110.567 151.417 107.553 151.409 104.544 151.395H104.313L104.325 151.636C104.331 151.842 104.322 152.049 104.299 152.254C104.275 152.481 104.266 152.709 104.273 152.937L104.283 153.149H104.488C113.71 153.318 123.09 153.722 132.161 154.112C141.054 154.496 150.229 154.89 159.198 155.061Z" fill="white"/>
<path d="M147.032 202.436V202.205C146.983 199.794 146.995 197.347 147.008 194.978C147.117 190.111 146.972 185.241 146.572 180.39L146.553 180.186H145.272L145.284 180.427C145.634 187.362 145.776 194.479 145.73 202.206V202.436H147.032Z" fill="white"/>
<path d="M134.378 194.695L134.394 194.903H134.595C136.619 194.896 138.642 195.007 140.655 195.235H140.681C140.702 195.235 140.715 195.235 140.785 195.277L141.105 195.445V195.08C141.094 194.097 141.086 193.115 141.08 192.134C141.071 191.056 141.062 189.978 141.052 188.9V188.676H140.837C138.615 188.676 136.38 188.709 134.187 188.774H133.961L133.975 189.01C134.112 191.278 134.236 193.03 134.378 194.695Z" fill="white"/>
<path d="M53.5838 181.365L53.4631 181.422V181.562C53.3633 183.792 53.3966 186.057 53.4298 188.247C53.4631 190.472 53.4963 192.773 53.3896 195.031L53.3773 195.29L53.6258 195.27C54.0353 195.235 54.4431 195.18 54.8403 195.124L55.0311 195.098V194.897C55.0311 193.496 54.9908 192.065 54.9558 190.682C54.8094 187.493 54.8556 184.299 55.0941 181.117L55.1273 180.772L54.8106 180.878C54.3921 181.013 53.9823 181.175 53.5838 181.365Z" fill="white"/>
<path d="M58.2476 158.271C51.4593 162.662 45.0438 167.709 38.2223 172.054C38.2661 172.475 38.2871 172.897 38.3186 173.32C38.3473 173.387 38.365 173.459 38.3711 173.532C38.5321 175.709 38.8733 177.877 38.8401 180.066C38.8442 180.206 38.8092 180.345 38.7394 180.466C38.6695 180.586 38.5677 180.683 38.4463 180.744C38.3585 180.902 38.2185 181.021 38.0526 181.078C37.1461 181.422 36.2728 181.845 35.3978 182.277C35.0146 190.18 34.8343 198.071 35.1966 205.984C42.6673 207.809 50.3498 208.34 57.8538 210.017C57.9483 210.041 58.0288 210.074 58.1303 210.107C57.5651 192.864 58.4611 175.56 58.2476 158.271ZM50.0086 196.571C50.0066 196.605 49.9995 196.638 49.9876 196.669C50.0078 196.858 49.9618 197.047 49.8582 197.202C49.7545 197.358 49.6003 197.469 49.4241 197.514C48.4734 197.703 47.5117 197.825 46.5453 197.879C46.4798 197.877 46.4152 197.862 46.3546 197.836C46.2506 197.852 46.1443 197.843 46.0442 197.809C45.9441 197.776 45.8527 197.718 45.7773 197.642C45.7019 197.565 45.6445 197.472 45.6096 197.368C45.5746 197.265 45.5631 197.154 45.5758 197.045C45.8961 192.045 45.4166 187.044 45.7036 182.042C45.7036 181.998 45.7246 181.976 45.7351 181.931V181.898C45.7726 181.728 45.8603 181.574 45.9859 181.458C46.1114 181.343 46.2685 181.271 46.4351 181.254C47.2255 180.847 48.0641 180.552 48.9288 180.376C49.0713 180.309 49.2282 180.284 49.3834 180.301C49.5386 180.319 49.6863 180.38 49.8113 180.478C49.9363 180.575 50.0339 180.706 50.0942 180.856C50.1544 181.007 50.175 181.171 50.1538 181.332C49.4871 186.34 50.0418 191.541 50.0086 196.576V196.571ZM56.4031 195.459C56.401 195.494 56.3939 195.528 56.3821 195.56C56.4018 195.748 56.3553 195.937 56.2514 196.092C56.1474 196.247 55.993 196.358 55.8168 196.403C54.8666 196.589 53.9054 196.708 52.9398 196.759C52.8743 196.756 52.8097 196.741 52.7491 196.715C52.6451 196.731 52.5388 196.722 52.4387 196.689C52.3386 196.655 52.2472 196.598 52.1718 196.521C52.0964 196.445 52.039 196.351 52.0041 196.248C51.9691 196.144 51.9576 196.034 51.9703 195.925C52.2906 190.924 51.8111 185.924 52.0981 180.922C52.0981 180.878 52.1191 180.856 52.1296 180.81V180.777C52.1671 180.607 52.2548 180.453 52.3804 180.338C52.5059 180.222 52.663 180.151 52.8296 180.133C53.62 179.727 54.4586 179.432 55.3233 179.255C55.4659 179.192 55.622 179.168 55.7759 179.188C55.9299 179.207 56.0763 179.268 56.2004 179.365C56.3245 179.462 56.422 179.591 56.4831 179.74C56.5441 179.888 56.5667 180.051 56.5483 180.212C55.8816 185.229 56.4363 190.43 56.4031 195.465V195.459Z" fill="white"/>
<path d="M58.3893 153.682L58.3806 153.282L58.0551 153.494C53.2919 156.726 48.6947 160.216 44.2826 163.951C42.1406 165.701 39.9251 167.51 37.7061 169.231L37.5976 169.329L37.6256 169.471C37.6763 169.743 37.7288 170.019 37.7691 170.284L37.8216 170.621L38.0998 170.439C41.4248 168.302 44.6991 165.966 47.8683 163.708C51.2581 161.292 54.7651 158.793 58.3281 156.538L58.4348 156.47V156.339C58.4243 155.45 58.4121 154.561 58.3893 153.682Z" fill="white"/>
<path d="M85.9781 187.081L86.2633 187.172V186.86C86.2318 184.292 86.2213 181.726 86.2108 179.16V178.936H85.9973C84.0338 178.907 82.0458 179 80.1243 179.095C78.8713 179.157 77.5763 179.221 76.3023 179.248H76.0888V179.471C76.0783 181.925 76.2638 184.398 76.4388 186.824L76.4546 187.035H85.6736C85.7767 187.034 85.8794 187.049 85.9781 187.081Z" fill="white"/>
<path d="M37.3088 179.852L37.4506 179.795V179.639C37.4506 179.179 37.4401 178.719 37.4191 178.261L37.4016 177.866L37.0813 178.078C36.4163 178.525 35.8861 178.905 35.4153 179.279L35.3366 179.341V179.443C35.3261 179.604 35.3173 179.766 35.3086 179.929C35.2998 180.091 35.2946 180.233 35.2841 180.389L35.2578 180.774L35.5921 180.611C36.1853 180.323 36.7488 180.075 37.3088 179.852Z" fill="white"/>
<path d="M60.7693 155.027C65.2883 154.75 69.8178 154.71 74.3406 154.908C76.4983 154.965 78.7296 155.023 80.9048 155.027C83.6593 155.027 86.4751 154.994 89.1928 154.954C92.5826 154.906 96.0913 154.859 99.5301 154.893H99.7523V154.662C99.7523 154.548 99.7523 154.435 99.7523 154.322C99.7523 154.209 99.7523 154.105 99.7523 153.995V153.769H99.5353C92.8853 153.694 86.1408 153.506 79.6116 153.324C73.4253 153.151 67.0291 152.972 60.7326 152.891H60.5068L60.5471 155.047L60.7693 155.027Z" fill="white"/>
<path d="M47.1893 182.476L47.0686 182.533V182.674C46.9671 184.904 47.0003 187.169 47.0336 189.359C47.0668 191.583 47.1018 193.884 46.9933 196.142L46.9811 196.401L47.2296 196.381C47.6373 196.348 48.0468 196.29 48.4546 196.235L48.6453 196.21V196.009C48.6453 194.607 48.6051 193.176 48.5701 191.793C48.4246 188.605 48.4707 185.41 48.7083 182.228L48.7416 181.883L48.4248 181.989C48.0033 182.124 47.5906 182.286 47.1893 182.476Z" fill="white"/>
<path d="M102.397 175.846C102.488 169.459 102.582 162.859 102.397 156.37V156.154H102.188C102.02 156.154 101.851 156.151 101.679 156.143L101.135 156.133H100.909V156.368C100.936 164.712 100.977 173.053 101.033 181.392C101.088 190.452 101.144 199.825 101.166 209.037V209.264H101.385C101.648 209.264 101.91 209.264 102.176 209.275C102.439 209.281 102.695 209.365 102.915 209.516L102.946 209.53L103.356 209.959L103.284 209.309C102.306 198.186 102.01 187.009 102.397 175.846Z" fill="white"/>
<path d="M101.065 57.5314C101.111 57.5381 101.157 57.5485 101.201 57.5624C101.881 57.8461 102.598 58.0233 103.328 58.088L103.571 58.1118V57.8581C103.516 54.4125 103.473 50.9645 103.443 47.514V47.3406L103.284 47.295C102.635 47.0892 101.954 47.0228 101.28 47.0997L101.089 47.1253V47.326C101.089 47.6454 101.089 47.9648 101.077 48.2768L100.883 57.5004L101.065 57.5314Z" fill="white"/>
<path d="M101.324 44.9116C101.935 44.8751 102.548 44.9113 103.151 45.0192L103.41 45.0667V44.7911C103.368 41.0024 103.336 37.2167 103.315 33.4341V33.2078H101.121V33.4287C101.054 35.9654 101.07 38.6919 101.086 41.3272C101.086 42.466 101.1 43.5903 101.1 44.6834V44.9225L101.324 44.9116Z" fill="white"/>
<path d="M100.305 85.6547C100.285 86.5003 100.267 87.3458 100.249 88.1914C100.231 89.1112 100.21 90.0328 100.188 90.9563C100.174 91.9965 100.15 93.0331 100.127 94.0588L100.088 95.8838H104.036V95.6739C104.026 93.0058 104.014 90.3504 103.982 87.7023L103.947 85.4448L100.311 85.4338L100.305 85.6547Z" fill="white"/>
<path d="M100.013 99.7054C99.9431 102.917 99.8771 106.128 99.8153 109.338V109.571H100.039C101.439 109.571 102.551 109.59 103.763 109.681L103.998 109.699L104.012 106.049C104.012 103.698 104.031 101.352 104.031 99.0027V98.7764H100.039L100.013 99.7054Z" fill="white"/>
<path d="M86.2704 187.847V187.519L85.9781 187.639C85.8806 187.676 85.7773 187.694 85.6736 187.69H76.5036L76.5194 187.933C76.6104 189.331 76.6944 190.831 76.7329 192.322C76.7329 192.643 76.7154 192.941 76.6979 193.211C76.6364 193.485 76.6276 193.769 76.672 194.047C76.7165 194.324 76.8133 194.59 76.9569 194.828C77.3918 195.22 77.9581 195.417 78.5319 195.375C79.3404 195.443 80.1646 195.476 80.9819 195.476C81.9846 195.476 82.9874 195.448 83.9919 195.428C84.7479 195.412 85.5021 195.397 86.2669 195.386H86.4926L86.4821 195.149C86.3614 192.603 86.3089 190.026 86.2704 187.847Z" fill="white"/>
<path d="M102.79 154.711C102.79 154.519 102.78 154.346 102.768 154.123L102.75 153.831L102.537 153.649C102.247 153.402 101.906 153.231 101.541 153.149H101.14L100.465 153.437L100.475 155.351L102.79 155.419V154.711Z" fill="white"/>
<path d="M80.9048 156.467C74.2443 156.456 67.4298 155.943 60.7798 156.467C61.0791 174.337 60.1078 192.253 60.6941 210.101C73.7281 209.879 86.7516 208.767 99.7856 209.006C99.7541 191.446 99.5931 173.897 99.5406 156.339C93.3298 156.264 87.1068 156.477 80.9048 156.467ZM94.4603 200.699H95.7291C95.9345 200.709 96.1283 200.801 96.2703 200.956C96.4122 201.111 96.4914 201.318 96.4914 201.532C96.4914 201.747 96.4122 201.953 96.2703 202.108C96.1283 202.263 95.9345 202.355 95.7291 202.365H94.4603C94.2549 202.355 94.0611 202.263 93.9191 202.108C93.7772 201.953 93.698 201.747 93.698 201.532C93.698 201.318 93.7772 201.111 93.9191 200.956C94.0611 200.801 94.2549 200.709 94.4603 200.699ZM64.6893 157.633H65.6273C65.8394 157.633 66.0429 157.721 66.1928 157.877C66.3428 158.033 66.4271 158.246 66.4271 158.467C66.4271 158.688 66.3428 158.9 66.1928 159.056C66.0429 159.213 65.8394 159.301 65.6273 159.301H64.6893C64.4772 159.301 64.2738 159.213 64.1238 159.056C63.9738 158.9 63.8896 158.688 63.8896 158.467C63.8896 158.246 63.9738 158.033 64.1238 157.877C64.2738 157.721 64.4772 157.633 64.6893 157.633ZM67.1393 159.79C67.3447 159.8 67.5385 159.892 67.6805 160.047C67.8225 160.202 67.9017 160.408 67.9017 160.623C67.9017 160.837 67.8225 161.044 67.6805 161.199C67.5385 161.354 67.3447 161.446 67.1393 161.456H65.9458C65.7404 161.446 65.5466 161.354 65.4046 161.199C65.2627 161.044 65.1835 160.837 65.1835 160.623C65.1835 160.408 65.2627 160.202 65.4046 160.047C65.5466 159.892 65.7404 159.8 65.9458 159.79H67.1393ZM63.3453 163.679C63.1332 163.679 62.9298 163.591 62.7798 163.435C62.6298 163.278 62.5456 163.066 62.5456 162.845C62.5456 162.624 62.6298 162.412 62.7798 162.255C62.9298 162.099 63.1332 162.011 63.3453 162.011H64.6141C64.8262 162.011 65.0296 162.099 65.1796 162.255C65.3296 162.412 65.4138 162.624 65.4138 162.845C65.4138 163.066 65.3296 163.278 65.1796 163.435C65.0296 163.591 64.8262 163.679 64.6141 163.679H63.3453ZM67.6503 165.635C67.5897 165.845 67.4539 166.021 67.2713 166.129C67.0887 166.236 66.8735 166.266 66.6703 166.212C66.1981 166.153 65.7304 166.06 65.2703 165.935C65.0668 165.876 64.8941 165.735 64.7902 165.543C64.6864 165.351 64.6598 165.124 64.7164 164.912C64.7731 164.699 64.9082 164.519 65.0922 164.411C65.2761 164.303 65.4938 164.275 65.6973 164.334C66.1558 164.456 66.6231 164.535 67.0973 164.611C67.1994 164.639 67.2952 164.688 67.3791 164.754C67.463 164.821 67.5334 164.904 67.5861 165C67.6389 165.095 67.673 165.2 67.6864 165.309C67.6998 165.418 67.6923 165.529 67.6643 165.635H67.6503ZM67.8743 163.402H67.0116C66.7995 163.402 66.596 163.314 66.4461 163.157C66.2961 163.001 66.2118 162.789 66.2118 162.567C66.2118 162.346 66.2961 162.134 66.4461 161.978C66.596 161.821 66.7995 161.733 67.0116 161.733H67.8743C68.0864 161.732 68.2902 161.819 68.4409 161.975C68.5915 162.131 68.6766 162.343 68.6776 162.564C68.6785 162.785 68.5951 162.998 68.4458 163.155C68.2965 163.312 68.0934 163.401 67.8813 163.402H67.8743ZM68.6741 159.301H67.5436C67.3315 159.301 67.1281 159.213 66.9781 159.056C66.8281 158.9 66.7438 158.688 66.7438 158.467C66.7438 158.246 66.8281 158.033 66.9781 157.877C67.1281 157.721 67.3315 157.633 67.5436 157.633H68.6741C68.8862 157.632 69.09 157.719 69.2406 157.874C69.3912 158.03 69.4764 158.242 69.4773 158.463C69.4783 158.684 69.3949 158.897 69.2456 159.054C69.0962 159.211 68.8932 159.3 68.6811 159.301H68.6741ZM87.0893 196.81C83.3742 197.036 79.6472 196.917 75.9523 196.454C75.7834 196.407 75.6343 196.303 75.5282 196.158C75.4222 196.013 75.3651 195.835 75.3661 195.653C75.3661 190.063 74.5996 184.52 74.7046 178.938C74.7067 178.778 74.7555 178.624 74.8446 178.494C74.866 178.306 74.9545 178.132 75.0925 178.009C75.2306 177.885 75.4082 177.82 75.5901 177.826C79.3298 177.804 83.0398 177.359 86.7796 177.494C86.9922 177.498 87.1951 177.588 87.3446 177.745C87.4942 177.903 87.5784 178.116 87.5793 178.337C87.6213 184.217 87.6108 190.096 87.8891 195.976C87.8891 196.197 87.8048 196.409 87.6548 196.566C87.5049 196.722 87.3014 196.81 87.0893 196.81ZM92.4706 202.71H93.8706C94.0827 202.71 94.2861 202.798 94.4361 202.954C94.5861 203.111 94.6703 203.323 94.6703 203.544C94.6703 203.765 94.5861 203.978 94.4361 204.134C94.2861 204.29 94.0827 204.378 93.8706 204.378H92.4706C92.2585 204.379 92.0549 204.291 91.9046 204.135C91.7542 203.979 91.6695 203.767 91.6691 203.546C91.6686 203.325 91.7524 203.112 91.9021 202.956C92.0517 202.799 92.255 202.711 92.4671 202.71H92.4706ZM95.5296 207.023H94.2643C94.0589 207.013 93.8651 206.92 93.7231 206.765C93.5812 206.61 93.502 206.404 93.502 206.19C93.502 205.975 93.5812 205.769 93.7231 205.614C93.8651 205.459 94.0589 205.366 94.2643 205.356H95.5331C95.7385 205.367 95.9319 205.46 96.0733 205.616C96.2146 205.772 96.293 205.979 96.2921 206.193C96.2912 206.407 96.2111 206.613 96.0684 206.768C95.9258 206.922 95.7316 207.014 95.5261 207.023H95.5296ZM96.7336 204.311H95.9233C95.7179 204.301 95.5241 204.209 95.3821 204.053C95.2402 203.898 95.161 203.692 95.161 203.478C95.161 203.263 95.2402 203.057 95.3821 202.902C95.5241 202.747 95.7179 202.655 95.9233 202.644H96.7336C96.939 202.655 97.1326 202.748 97.2742 202.903C97.4159 203.058 97.4947 203.265 97.4942 203.479C97.4938 203.694 97.4141 203.9 97.2718 204.055C97.1295 204.209 96.9355 204.301 96.7301 204.311H96.7336ZM97.6611 200.911H97.0643C96.8522 200.911 96.6488 200.823 96.4988 200.666C96.3488 200.51 96.2646 200.298 96.2646 200.077C96.2646 199.856 96.3488 199.643 96.4988 199.487C96.6488 199.331 96.8522 199.243 97.0643 199.243H97.6611C97.8732 199.243 98.0764 199.332 98.2261 199.488C98.3757 199.645 98.4595 199.857 98.4591 200.079C98.4586 200.3 98.3739 200.512 98.2236 200.668C98.0733 200.824 97.8697 200.911 97.6576 200.911H97.6611Z" fill="white"/>
<path d="M98.9124 150.893H99.4724L99.5266 150.855C99.5785 150.815 99.6342 150.781 99.6929 150.752C100.358 150.437 100.985 150.04 101.56 149.57L101.618 149.526L101.641 149.455C101.715 149.171 101.88 148.922 102.109 148.749C102.337 148.576 102.615 148.489 102.897 148.502C103.441 148.515 103.986 148.515 104.532 148.515H104.764L104.747 148.27C104.572 145.677 104.435 143.011 104.322 140.12L104.313 139.901H99.3394V140.129C99.4257 143.637 99.2948 147.147 98.9474 150.637L98.9124 150.893Z" fill="white"/>
<path d="M99.7611 112.004C99.7133 114.156 99.6678 116.305 99.6246 118.45C99.5791 120.652 99.5325 122.853 99.4846 125.053V125.292H99.7139C100.319 125.275 100.925 125.254 101.53 125.23C102.278 125.201 103.025 125.171 103.772 125.159H103.989V124.932C103.968 120.684 103.968 116.38 103.989 112.143V111.916L103.784 111.904C102.521 111.816 100.865 111.792 100.071 111.781H99.7716L99.7611 112.004Z" fill="white"/>
<path d="M99.4251 128.11C99.3947 129.683 99.3615 131.26 99.3253 132.842C99.2921 134.53 99.3043 136.246 99.3148 137.906V138.133H104.257V137.895C104.129 134.138 104.052 130.767 104.021 127.588V127.358H103.802C102.927 127.372 102.069 127.409 101.205 127.444C100.68 127.464 100.171 127.486 99.6526 127.502H99.4443L99.4251 128.11Z" fill="white"/>
<path d="M141.042 187.457V187.225C141.009 184.926 140.988 182.626 140.977 180.327V180.108H140.767C139.243 180.053 137.72 179.976 136.198 179.898C135.76 179.898 135.323 179.883 134.892 179.874C134.49 179.874 134.087 179.858 133.683 179.852H133.447L133.463 180.1C133.559 181.677 133.648 183.265 133.737 184.845L133.89 187.57H134.101C136.359 187.504 138.623 187.47 140.832 187.47L141.042 187.457Z" fill="white"/>
<path d="M152.993 186.13H154.099H154.31V185.907C154.37 183.73 154.445 181.4 154.585 179.113L154.601 178.868H154.365C153.63 178.879 152.954 178.916 152.301 178.98L152.126 178.996L152.102 179.179C151.841 181.195 151.673 183.4 151.589 185.913V186.148H151.815C151.859 186.148 151.892 186.137 151.871 186.137L152.993 186.13Z" fill="white"/>
<path d="M155.423 187.568C155.366 189.729 155.29 192.24 155.136 194.686L155.122 194.93H155.355H156.508C156.897 194.93 157.287 194.93 157.679 194.93H157.922L157.896 194.677C157.653 192.333 157.525 189.978 157.513 187.621V187.408L157.308 187.395C156.75 187.36 156.204 187.338 155.647 187.327H155.43L155.423 187.568Z" fill="white"/>
<path d="M151.556 187.546C151.503 189.919 151.514 192.339 151.523 194.677V195H151.747C152.361 194.979 152.972 194.969 153.577 194.958H153.948L153.962 194.748C154.127 192.313 154.2 189.873 154.261 187.581V187.347H154.044C153.68 187.347 153.317 187.347 152.956 187.347H151.892L151.561 187.324L151.556 187.546Z" fill="white"/>
<path d="M121.242 178.56C121.356 176.847 121.234 175.126 120.88 173.45C120.784 173.461 120.677 173.461 120.57 173.472C120.454 173.484 120.337 173.466 120.229 173.419C120.121 173.372 120.027 173.297 119.953 173.202C119.88 173.107 119.831 172.994 119.811 172.874C119.79 172.755 119.799 172.631 119.835 172.516C119.825 172.483 119.802 172.472 119.802 172.439C119.638 171.73 119.584 170.998 119.643 170.271C119.65 170.208 119.665 170.147 119.687 170.088C119.628 169.959 119.599 169.817 119.604 169.674C119.608 169.531 119.645 169.392 119.712 169.267C119.778 169.142 119.872 169.035 119.987 168.956C120.101 168.877 120.231 168.827 120.367 168.811C131.213 168.089 142.091 168.089 152.937 168.811C153.188 168.939 153.408 169.125 153.581 169.354C153.754 169.583 153.876 169.849 153.938 170.134C153.938 170.134 153.938 171.702 153.875 172.534C153.869 172.569 153.857 172.603 153.841 172.634C153.85 172.743 153.837 172.853 153.802 172.956C153.767 173.059 153.711 173.153 153.639 173.232C153.566 173.31 153.478 173.372 153.381 173.413C153.284 173.454 153.18 173.473 153.075 173.468C152.627 173.468 152.179 173.457 151.731 173.446C151.699 174.879 151.593 176.302 151.465 177.713C151.473 177.714 151.48 177.718 151.486 177.724C151.599 177.639 151.732 177.585 151.871 177.569C154.065 177.393 156.267 177.345 158.467 177.425C158.55 177.43 158.633 177.448 158.712 177.48C158.814 177.459 158.921 177.465 159.021 177.496C159.121 177.528 159.212 177.585 159.287 177.661C159.362 177.738 159.417 177.832 159.449 177.937C159.481 178.041 159.488 178.151 159.469 178.259C158.746 183.895 158.699 189.603 159.329 195.251C159.379 195.376 159.399 195.511 159.387 195.645C159.374 195.779 159.33 195.908 159.258 196.021C159.187 196.133 159.09 196.225 158.976 196.288C158.861 196.352 158.734 196.385 158.605 196.385C156.048 196.385 153.5 196.341 150.943 196.463C150.836 196.471 150.728 196.453 150.628 196.412C150.528 196.371 150.438 196.307 150.365 196.225C150.291 196.143 150.236 196.045 150.203 195.938C150.17 195.832 150.161 195.718 150.175 195.607C150.16 195.547 150.149 195.486 150.144 195.425C150.027 190.248 150.197 185.068 150.655 179.912C150.511 180.062 150.315 180.146 150.112 180.146C149.377 180.168 148.653 180.179 147.926 180.19C148.695 187.526 148.257 194.872 148.406 202.228C149.164 202.239 149.92 202.252 150.681 202.252C150.816 202.261 150.947 202.302 151.064 202.373C151.236 202.429 151.388 202.54 151.498 202.689C151.608 202.838 151.672 203.018 151.682 203.207C151.782 203.663 151.841 204.128 151.857 204.595H153.071C153.134 204.595 153.178 204.552 153.231 204.563C153.333 204.544 153.438 204.548 153.539 204.576C153.64 204.604 153.734 204.655 153.814 204.724C153.894 204.794 153.958 204.88 154.003 204.979C154.048 205.077 154.071 205.184 154.072 205.293C154.072 205.76 154.116 206.205 154.158 206.659C154.424 206.703 154.683 206.749 154.947 206.782C155.091 206.812 155.219 206.895 155.31 207.015C155.404 207.065 155.487 207.133 155.555 207.217C155.623 207.302 155.673 207.399 155.703 207.504C155.879 208.066 155.983 208.649 156.013 209.238C156.407 209.293 156.801 209.349 157.196 209.393C157.322 209.406 157.444 209.445 157.556 209.508C157.667 209.571 157.766 209.656 157.845 209.758C157.985 209.869 158.077 210.033 158.101 210.215C158.218 210.87 158.276 211.536 158.356 212.193C158.544 212.254 158.737 212.295 158.932 212.315C159.326 212.337 159.784 212.671 159.732 213.147C159.716 213.303 159.716 213.459 159.732 213.615C159.881 213.649 160.042 213.671 160.19 213.693C159.294 204.146 159.977 194.065 159.828 184.575C159.69 175.238 159.763 165.858 159.478 156.512C141.212 156.167 122.956 154.933 104.689 154.599C105.351 173.306 103.56 192.076 105.786 210.704C110.818 210.926 115.847 210.758 120.889 210.726C120.962 208.214 120.889 205.712 121.038 203.212C121.045 203.15 121.059 203.089 121.08 203.03C121.089 202.853 121.148 202.684 121.248 202.542C121.349 202.399 121.486 202.291 121.645 202.228C121.879 194.471 121.719 186.706 121.165 178.967C121.153 178.826 121.179 178.685 121.242 178.56ZM123.096 162.356H123.831C124.043 162.356 124.246 162.444 124.396 162.6C124.546 162.756 124.63 162.969 124.63 163.19C124.63 163.411 124.546 163.623 124.396 163.78C124.246 163.936 124.043 164.024 123.831 164.024H123.096C122.883 164.024 122.68 163.936 122.53 163.78C122.38 163.623 122.296 163.411 122.296 163.19C122.296 162.969 122.38 162.756 122.53 162.6C122.68 162.444 122.883 162.356 123.096 162.356ZM122.03 165.206C122.242 165.206 122.445 165.294 122.595 165.451C122.745 165.607 122.83 165.819 122.83 166.04C122.83 166.262 122.745 166.474 122.595 166.63C122.445 166.787 122.242 166.874 122.03 166.874H121.505C121.293 166.874 121.089 166.787 120.939 166.63C120.789 166.474 120.705 166.262 120.705 166.04C120.705 165.819 120.789 165.607 120.939 165.451C121.089 165.294 121.293 165.206 121.505 165.206H122.03ZM120.63 162.639H119.501C119.296 162.629 119.102 162.536 118.96 162.381C118.818 162.226 118.739 162.02 118.739 161.806C118.739 161.591 118.818 161.385 118.96 161.23C119.102 161.075 119.296 160.982 119.501 160.972H120.63C120.828 160.991 121.013 161.087 121.147 161.24C121.281 161.393 121.356 161.593 121.357 161.801C121.357 162.009 121.283 162.209 121.149 162.363C121.016 162.517 120.832 162.613 120.633 162.633L120.63 162.639ZM117.839 159.027H118.829C119.041 159.027 119.245 159.115 119.395 159.271C119.545 159.428 119.629 159.64 119.629 159.861C119.629 160.082 119.545 160.294 119.395 160.451C119.245 160.607 119.041 160.695 118.829 160.695H117.839C117.733 160.695 117.629 160.673 117.532 160.631C117.434 160.588 117.346 160.526 117.272 160.449C117.197 160.371 117.138 160.278 117.098 160.177C117.058 160.075 117.038 159.966 117.038 159.856C117.038 159.747 117.059 159.638 117.1 159.536C117.14 159.435 117.2 159.343 117.274 159.265C117.349 159.188 117.437 159.126 117.535 159.084C117.632 159.043 117.737 159.021 117.842 159.021L117.839 159.027ZM117.7 165.63H116.442C116.23 165.63 116.027 165.542 115.877 165.386C115.727 165.229 115.642 165.017 115.642 164.796C115.642 164.575 115.727 164.362 115.877 164.206C116.027 164.05 116.23 163.962 116.442 163.962H117.7C117.901 163.978 118.088 164.073 118.224 164.226C118.361 164.38 118.437 164.582 118.437 164.791C118.438 165.001 118.362 165.203 118.226 165.357C118.091 165.512 117.904 165.607 117.704 165.624L117.7 165.63ZM115.632 161.117H117.167C117.379 161.117 117.582 161.204 117.732 161.361C117.882 161.517 117.966 161.729 117.966 161.951C117.966 162.172 117.882 162.384 117.732 162.54C117.582 162.697 117.379 162.785 117.167 162.785H115.632C115.419 162.784 115.215 162.696 115.065 162.538C114.915 162.381 114.831 162.168 114.831 161.946C114.832 161.724 114.917 161.511 115.067 161.355C115.218 161.198 115.423 161.111 115.635 161.111L115.632 161.117ZM118.829 195.259C118.879 195.383 118.899 195.518 118.886 195.653C118.874 195.787 118.83 195.916 118.758 196.028C118.687 196.14 118.589 196.232 118.475 196.296C118.361 196.359 118.234 196.392 118.105 196.392C115.548 196.392 113 196.348 110.443 196.47C110.336 196.478 110.228 196.46 110.128 196.419C110.028 196.378 109.938 196.314 109.864 196.232C109.791 196.15 109.736 196.053 109.703 195.946C109.67 195.839 109.661 195.726 109.675 195.615C109.66 195.555 109.649 195.494 109.643 195.432C109.487 189.721 109.721 184.005 110.343 178.328C110.355 178.16 110.429 178.004 110.551 177.893C110.673 177.783 110.832 177.727 110.993 177.739C111.106 177.654 111.237 177.6 111.376 177.584C113.571 177.408 115.773 177.36 117.973 177.439C118.057 177.445 118.14 177.463 118.218 177.494C118.321 177.473 118.427 177.479 118.527 177.511C118.628 177.542 118.719 177.599 118.793 177.676C118.868 177.753 118.923 177.847 118.955 177.951C118.986 178.055 118.993 178.166 118.974 178.273C118.252 183.905 118.204 189.609 118.833 195.253L118.829 195.259ZM119.564 163.339C119.807 163.341 120.049 163.327 120.29 163.296C121.291 163.113 121.729 164.728 120.716 164.907C120.334 164.968 119.95 165.002 119.564 165.007C119.459 165.007 119.354 164.985 119.257 164.943C119.16 164.901 119.072 164.839 118.997 164.761C118.923 164.683 118.864 164.591 118.824 164.489C118.784 164.388 118.763 164.279 118.763 164.169C118.764 164.059 118.785 163.95 118.825 163.849C118.866 163.747 118.925 163.655 119 163.578C119.074 163.5 119.163 163.439 119.26 163.397C119.358 163.355 119.462 163.334 119.568 163.334L119.564 163.339Z" fill="white"/>
<path d="M177.627 187.081L177.914 187.172V186.86C177.883 184.292 177.872 181.726 177.862 179.16V178.936H177.648C175.688 178.907 173.697 179 171.775 179.095C170.522 179.157 169.227 179.221 167.953 179.248H167.74V179.471C167.729 181.925 167.915 184.398 168.09 186.824L168.106 187.035H177.325C177.427 187.034 177.529 187.049 177.627 187.081Z" fill="white"/>
<path d="M157.292 186.194L157.52 186.207V185.971C157.572 183.615 157.73 181.307 157.985 179.115L158.015 178.863H157.774C157.462 178.863 157.149 178.854 156.836 178.85C156.522 178.846 156.258 178.85 155.971 178.839H155.763L155.751 179.058C155.619 181.21 155.544 183.351 155.472 185.9V186.13H155.693C156.214 186.145 156.762 186.168 157.292 186.194Z" fill="white"/>
<path d="M160.859 156.799V157.027H187.963L187.938 156.777C187.907 156.454 187.863 156.133 187.809 155.824L187.776 155.642H187.601C185.446 155.627 183.292 155.594 181.138 155.56C174.644 155.459 167.931 155.355 161.316 155.831C161.263 155.837 161.209 155.837 161.156 155.831H161.062L160.834 155.855L160.845 156.094C160.85 156.324 160.859 156.567 160.859 156.799Z" fill="white"/>
<path d="M188.574 184.34C188.35 177.693 188.126 171.046 187.849 164.402C187.784 162.812 187.87 160.888 187.839 159.021H161.153C161.366 167.535 161.302 176.071 161.429 184.571C161.578 193.917 160.864 203.887 161.739 213.312C162.019 213.058 162.38 212.923 162.751 212.934C171.676 212.945 180.601 213.078 189.526 212.945C188.659 203.5 188.894 193.808 188.574 184.34ZM182.041 204.199C182.417 204.133 182.798 204.099 183.18 204.099C183.392 204.099 183.596 204.187 183.746 204.343C183.896 204.5 183.98 204.712 183.98 204.933C183.98 205.154 183.896 205.366 183.746 205.523C183.596 205.679 183.392 205.767 183.18 205.767C182.938 205.76 182.695 205.774 182.456 205.811C181.455 205.979 181.017 204.378 182.041 204.199ZM169.924 171.869H170.521C170.733 171.869 170.936 171.957 171.086 172.114C171.236 172.27 171.32 172.482 171.32 172.704C171.32 172.925 171.236 173.137 171.086 173.293C170.936 173.45 170.733 173.538 170.521 173.538H169.924C169.712 173.538 169.508 173.45 169.358 173.293C169.208 173.137 169.124 172.925 169.124 172.704C169.124 172.482 169.208 172.27 169.358 172.114C169.508 171.957 169.712 171.869 169.924 171.869ZM169.399 174.092H170.465C170.677 174.092 170.88 174.18 171.03 174.337C171.18 174.493 171.264 174.705 171.264 174.926C171.264 175.148 171.18 175.36 171.03 175.516C170.88 175.673 170.677 175.76 170.465 175.76H169.399C169.187 175.762 168.983 175.675 168.832 175.519C168.681 175.364 168.596 175.152 168.595 174.931C168.594 174.71 168.677 174.497 168.826 174.34C168.975 174.183 169.178 174.094 169.39 174.092H169.399ZM166.79 170.481H167.855C168.061 170.491 168.255 170.583 168.397 170.738C168.538 170.893 168.618 171.099 168.618 171.314C168.618 171.528 168.538 171.734 168.397 171.89C168.255 172.045 168.061 172.137 167.855 172.147H166.79C166.584 172.137 166.39 172.045 166.248 171.89C166.106 171.734 166.027 171.528 166.027 171.314C166.027 171.099 166.106 170.893 166.248 170.738C166.39 170.583 166.584 170.491 166.79 170.481ZM167.196 172.488C167.408 172.488 167.611 172.576 167.761 172.732C167.911 172.889 167.995 173.101 167.995 173.322C167.995 173.543 167.911 173.756 167.761 173.912C167.611 174.068 167.408 174.156 167.196 174.156H165.927C165.715 174.156 165.511 174.068 165.361 173.912C165.211 173.756 165.127 173.543 165.127 173.322C165.127 173.101 165.211 172.889 165.361 172.732C165.511 172.576 165.715 172.488 165.927 172.488H167.196ZM163.316 169.333C163.739 169.26 164.167 169.227 164.595 169.232C164.8 169.242 164.994 169.335 165.136 169.49C165.278 169.645 165.357 169.851 165.357 170.065C165.357 170.28 165.278 170.486 165.136 170.641C164.994 170.796 164.8 170.889 164.595 170.899C164.311 170.888 164.026 170.899 163.743 170.933C162.74 171.114 162.304 169.502 163.316 169.336V169.333ZM162.864 171.937H164.058C164.263 171.947 164.457 172.039 164.599 172.194C164.741 172.349 164.82 172.556 164.82 172.77C164.82 172.985 164.741 173.191 164.599 173.346C164.457 173.501 164.263 173.593 164.058 173.603H162.864C162.659 173.593 162.465 173.501 162.323 173.346C162.181 173.191 162.102 172.985 162.102 172.77C162.102 172.556 162.181 172.349 162.323 172.194C162.465 172.039 162.659 171.947 162.864 171.937ZM164.123 175.481H162.992C162.787 175.471 162.593 175.379 162.451 175.224C162.309 175.069 162.23 174.862 162.23 174.648C162.23 174.434 162.309 174.227 162.451 174.072C162.593 173.917 162.787 173.825 162.992 173.815H164.123C164.328 173.824 164.522 173.916 164.664 174.071C164.807 174.226 164.886 174.432 164.887 174.646C164.887 174.861 164.808 175.067 164.667 175.223C164.525 175.378 164.331 175.471 164.126 175.481H164.123ZM165.86 174.859H166.385C166.597 174.859 166.801 174.947 166.951 175.103C167.101 175.26 167.185 175.472 167.185 175.693C167.185 175.914 167.101 176.126 166.951 176.283C166.801 176.439 166.597 176.527 166.385 176.527H165.86C165.648 176.526 165.445 176.438 165.295 176.281C165.146 176.125 165.062 175.912 165.062 175.691C165.063 175.47 165.148 175.258 165.298 175.102C165.448 174.946 165.652 174.858 165.864 174.859H165.86ZM178.733 196.81C175.018 197.036 171.291 196.916 167.596 196.454C167.427 196.407 167.278 196.303 167.172 196.158C167.066 196.013 167.009 195.835 167.01 195.653C167.01 190.063 166.244 184.52 166.35 178.938C166.352 178.779 166.4 178.624 166.489 178.494C166.51 178.306 166.598 178.132 166.737 178.009C166.875 177.885 167.052 177.82 167.234 177.826C170.976 177.804 174.684 177.359 178.424 177.494C178.636 177.497 178.839 177.588 178.989 177.745C179.138 177.903 179.222 178.116 179.223 178.337C179.265 184.217 179.255 190.096 179.533 195.976C179.533 196.085 179.513 196.193 179.473 196.295C179.433 196.396 179.375 196.487 179.301 196.565C179.227 196.642 179.139 196.704 179.042 196.746C178.945 196.788 178.842 196.81 178.737 196.81H178.733ZM181.313 210.424H180.247C180.035 210.424 179.832 210.337 179.682 210.18C179.532 210.024 179.447 209.812 179.447 209.59C179.447 209.369 179.532 209.157 179.682 209.001C179.832 208.844 180.035 208.756 180.247 208.756H181.313C181.525 208.756 181.729 208.843 181.879 208.999C182.029 209.155 182.114 209.367 182.114 209.589C182.115 209.81 182.031 210.022 181.881 210.179C181.732 210.336 181.528 210.424 181.316 210.424H181.313ZM181.514 208.346C181.302 208.346 181.099 208.258 180.949 208.101C180.799 207.945 180.714 207.733 180.714 207.512C180.714 207.291 180.799 207.078 180.949 206.922C181.099 206.766 181.302 206.678 181.514 206.678H182.379C182.591 206.678 182.794 206.766 182.944 206.922C183.094 207.078 183.178 207.291 183.178 207.512C183.178 207.733 183.094 207.945 182.944 208.101C182.794 208.258 182.591 208.346 182.379 208.346H181.514ZM185.042 211.047H183.583C183.37 211.047 183.167 210.959 183.017 210.802C182.867 210.646 182.783 210.434 182.783 210.213C182.783 209.992 182.867 209.779 183.017 209.623C183.167 209.467 183.37 209.379 183.583 209.379H185.042C185.254 209.378 185.458 209.466 185.608 209.622C185.758 209.778 185.843 209.99 185.844 210.211C185.844 210.432 185.76 210.644 185.611 210.801C185.461 210.958 185.258 211.046 185.046 211.047H185.042ZM185.639 209.039C185.236 209.039 184.833 209.006 184.435 208.941C183.411 208.773 183.849 207.161 184.851 207.329C185.112 207.365 185.376 207.38 185.639 207.373C185.837 207.392 186.022 207.487 186.156 207.641C186.29 207.794 186.365 207.994 186.366 208.202C186.366 208.409 186.292 208.61 186.158 208.764C186.025 208.918 185.841 209.014 185.642 209.034L185.639 209.039ZM185.905 207.032H185.439C185.234 207.022 185.04 206.93 184.898 206.774C184.756 206.619 184.677 206.413 184.677 206.199C184.677 205.984 184.756 205.778 184.898 205.623C185.04 205.468 185.234 205.376 185.439 205.366H185.908C186.103 205.389 186.283 205.486 186.414 205.639C186.544 205.792 186.617 205.989 186.617 206.194C186.617 206.399 186.544 206.596 186.414 206.749C186.283 206.902 186.103 206.999 185.908 207.023L185.905 207.032ZM187.846 210.578H187.312C187.1 210.578 186.896 210.49 186.746 210.333C186.596 210.177 186.512 209.965 186.512 209.744C186.512 209.523 186.596 209.31 186.746 209.154C186.896 208.998 187.1 208.91 187.312 208.91H187.846C188.042 208.931 188.224 209.027 188.357 209.18C188.49 209.333 188.563 209.531 188.564 209.737C188.564 209.944 188.491 210.143 188.359 210.296C188.227 210.45 188.046 210.547 187.849 210.569L187.846 210.578Z" fill="white"/>
<path d="M111.812 178.978L111.637 178.994L111.612 179.177C111.351 181.193 111.183 183.398 111.099 185.911V186.146H111.327C111.371 186.146 111.404 186.136 111.381 186.136H112.505H113.607H113.821V185.915C113.878 183.862 113.952 181.473 114.097 179.118L114.113 178.874H113.877C113.14 178.877 112.464 178.914 111.812 178.978Z" fill="white"/>
<path d="M112.464 187.34H111.4L111.07 187.316V187.539C111.017 189.911 111.026 192.331 111.036 194.669V194.992H111.26C111.875 194.972 112.485 194.961 113.091 194.95H113.462L113.476 194.74C113.64 192.306 113.714 189.866 113.775 187.574V187.34H113.551C113.185 187.336 112.823 187.336 112.464 187.34Z" fill="white"/>
<path d="M100.827 60.059C100.753 63.5874 100.683 67.1108 100.615 70.6294V70.8576H100.834C101.727 70.8553 102.618 70.9292 103.499 71.0784L103.756 71.1204V70.8503C103.718 67.631 103.672 64.4184 103.618 61.2124L103.604 60.3237L103.403 60.3109C102.629 60.2571 101.864 60.1001 101.128 59.8437L100.846 59.7451L100.827 60.059Z" fill="white"/>
<path d="M100.564 73.2958C100.489 76.6739 100.416 80.0647 100.351 83.4428L100.368 83.6764H103.937V83.4446C103.884 80.1596 103.84 76.86 103.8 73.5732V73.179L103.56 73.2082C103.386 73.2336 103.209 73.2336 103.035 73.2082C102.29 73.1159 101.539 73.0701 100.788 73.0713H100.571L100.564 73.2958Z" fill="white"/>
<path d="M117.014 187.639V187.426L116.808 187.413C116.251 187.378 115.705 187.356 115.149 187.346H114.932V187.572C114.874 189.733 114.799 192.244 114.645 194.689L114.629 194.934H114.864H116.015C116.405 194.934 116.796 194.934 117.186 194.934H117.431L117.403 194.68C117.158 192.342 117.028 189.992 117.014 187.639Z" fill="white"/>
<path d="M116.342 178.854C116.054 178.854 115.767 178.854 115.48 178.843H115.271L115.259 179.062C115.128 181.214 115.053 183.354 114.981 185.904V186.134H115.201C115.726 186.145 116.272 186.168 116.803 186.201L117.028 186.214V185.979C117.084 183.586 117.237 181.343 117.496 179.122L117.525 178.87H117.284C116.971 178.859 116.664 178.857 116.342 178.854Z" fill="white"/>
<path d="M177.914 187.847V187.519L177.622 187.639C177.525 187.676 177.421 187.694 177.318 187.69H168.155L168.17 187.935C168.256 189.247 168.345 190.795 168.384 192.315C168.384 192.636 168.366 192.934 168.349 193.206C168.288 193.479 168.279 193.763 168.324 194.04C168.368 194.317 168.465 194.583 168.608 194.821C168.823 195.015 169.073 195.164 169.343 195.258C169.613 195.352 169.899 195.389 170.183 195.368C170.991 195.436 171.816 195.469 172.633 195.469C173.636 195.469 174.638 195.441 175.643 195.421C176.399 195.405 177.153 195.39 177.918 195.379H178.144L178.133 195.142C178.016 192.664 177.963 190.171 177.914 187.847Z" fill="white"/>
<path d="M108.931 16.8485C109.09 16.7755 109.265 16.6916 109.456 16.6022C109.764 16.4562 110.105 16.2919 110.473 16.135C110.494 16.3996 110.51 16.6569 110.51 16.9361C110.52 17.1077 110.531 17.2811 110.531 17.4654L110.65 19.8142L112.317 18.3961C117.144 14.2607 116.904 13.7497 116.778 13.4814C116.756 13.4328 116.724 13.39 116.684 13.3559C116.644 13.3218 116.597 13.2974 116.547 13.2843C115.093 13.6115 113.736 14.3002 112.592 15.2918C112.557 15.0801 112.519 14.8721 112.48 14.6658L112.181 13.0817L111.031 13.5617C109.905 14.0248 108.882 14.7256 108.028 15.6203C107.039 16.7719 107.272 17.0803 107.349 17.1825C107.575 17.4855 108.079 17.2993 108.931 16.8485Z" fill="white"/>
<path d="M108.77 24.6486L109.013 24.811C109.997 25.5111 110.946 26.264 111.855 27.0667C110.936 27.3234 110.126 27.8924 109.552 28.6836L108.992 29.5286L109.706 30.1728C111.533 32.0477 113.695 33.5302 116.069 34.5364H116.111C116.156 34.5334 116.199 34.5206 116.239 34.4989C116.278 34.4772 116.313 34.4471 116.341 34.4105C116.678 33.9579 115.914 33.133 112.2 29.4921L112.146 29.4374C112.345 29.3546 112.548 29.2827 112.755 29.222L113.105 29.1198C113.562 28.996 114.011 28.8461 114.452 28.6709L116.09 28.0193L114.823 26.7802C113.333 25.303 111.596 24.1228 109.698 23.2981C108.982 23.0243 107.29 22.4458 107.057 22.9969C106.884 23.3802 107.398 23.7251 108.77 24.6486Z" fill="white"/>
<path d="M99.8206 12.6912L99.8293 12.7058C100.417 13.4778 100.738 13.6712 100.942 13.6712C101 13.6703 101.056 13.6547 101.107 13.6256C101.362 13.4595 101.334 13.0781 100.991 12.0488L100.879 11.6272C100.794 11.3097 100.704 10.9611 100.613 10.5797C100.872 10.6855 101.138 10.8114 101.432 10.9447C101.907 11.16 102.444 11.4027 103.042 11.6272L104.308 12.0853L104.6 9.85878C104.679 9.22368 104.754 8.62325 104.803 8.01918V7.81478C104.822 7.24355 104.84 6.69788 104.85 6.17228C104.882 5.02435 104.833 4.03703 104.791 3.16468V3.0789C104.689 0.301253 104.441 0.0439277 104.133 0.00377766C103.931 -0.0181223 103.55 -0.0436724 103.083 2.9986C103.002 3.5753 102.939 4.24508 102.871 4.95318C102.836 5.30723 102.801 5.68318 102.761 6.04818C102.731 6.38154 102.702 6.72282 102.673 7.072L102.614 7.802L102.461 8.90613C101.495 8.43818 100.445 8.18463 99.3796 8.16153L98.1843 8.20533L98.4136 9.35143C98.6684 10.55 99.1465 11.6847 99.8206 12.6912Z" fill="white"/>
<path d="M95.1656 28.4391C95.0116 28.6106 94.8488 28.7895 94.6808 28.972C94.6178 28.7895 94.5478 28.607 94.4708 28.4245C94.2927 27.98 94.0778 27.5526 93.8286 27.147L93.0761 25.8567L92.1346 26.6688C91.2411 27.4691 90.4495 28.3854 89.7791 29.3954C89.6041 29.6527 89.4291 29.8863 89.2646 30.1017C89.1001 30.317 88.9741 30.505 88.8463 30.6784C88.4088 31.2678 88.1463 31.6237 88.3581 31.8938C88.6118 32.2588 89.4203 32.0088 90.3653 31.2897C90.8871 30.883 91.3812 30.4391 91.8441 29.9611C92.0383 29.7786 92.2361 29.5779 92.4373 29.3863C92.6405 29.8913 92.8158 30.408 92.9623 30.9339L93.6028 33.1366L94.8278 31.9102C95.7621 30.9601 96.5203 29.8384 97.0643 28.6015C97.6506 27.3423 97.6191 26.9681 97.3933 26.7966C97.1081 26.5721 96.6583 26.8367 95.8393 27.7091C95.6363 27.919 95.4106 28.169 95.1656 28.4391Z" fill="white"/>
<path d="M91.7881 15.8539L92.4881 16.2536L92.3884 16.3156C91.5291 16.8631 90.7766 17.4106 90.0486 17.9289C89.6146 18.2428 89.1981 18.5421 88.7904 18.8195L86.9914 20.066L88.9461 20.7595C90.3883 21.2637 91.874 21.6207 93.3824 21.8253L93.5854 21.8563C94.0687 21.9583 94.5591 22.0193 95.0519 22.0388C95.4684 22.0388 95.6119 21.9384 95.6696 21.7797C95.7554 21.5424 95.7011 21.2322 93.9756 20.4346C93.4751 20.2083 92.8504 19.9729 92.1906 19.7247L91.6866 19.5422L92.1959 19.2046C92.6421 18.9089 93.0901 18.6115 93.5521 18.3195C93.8941 18.0882 94.2488 17.8779 94.6144 17.6898C94.8349 17.573 95.0536 17.4544 95.2671 17.3248L97.0696 16.2298L95.3196 15.2845C91.4276 13.1766 87.7229 11.8809 87.0001 12.1291C86.958 12.1414 86.919 12.1629 86.8855 12.1921C86.852 12.2214 86.8248 12.2578 86.8059 12.2988C86.5731 12.7952 87.4761 13.3664 91.7881 15.8539Z" fill="white"/>
<path d="M164.789 215.12H155.352C153.476 215.067 151.619 215.009 149.806 214.947C144.649 214.764 139.773 214.604 134.684 214.68H134.318L134.101 215.969H134.602V217.401C134.602 217.522 134.648 217.638 134.73 217.724C134.812 217.81 134.923 217.858 135.039 217.858H164.789C164.905 217.858 165.017 217.81 165.099 217.724C165.181 217.638 165.227 217.522 165.227 217.401V215.576C165.227 215.455 165.181 215.339 165.099 215.254C165.017 215.168 164.905 215.12 164.789 215.12Z" fill="white"/>
<path d="M105.062 18.7684C105.176 17.3376 104.469 14.8921 102.684 15.2152C100.972 15.5254 101.41 17.261 101.984 18.6224C101.632 21.6006 101.539 24.6059 101.707 27.6014L101.532 27.585L101.502 27.8022C101.369 28.8078 101.27 29.952 101.203 31.2003L101.191 31.4412H103.28V31.2131C103.28 30.6656 103.28 30.1181 103.27 29.5597C103.259 29.0012 103.259 28.4647 103.259 27.9172V27.6945H103.048H103.014C102.912 25.244 102.935 22.7896 103.083 20.3416C103.269 20.4177 103.469 20.45 103.669 20.4365C103.868 20.4229 104.062 20.3636 104.238 20.263C104.413 20.1623 104.565 20.0227 104.682 19.8539C104.8 19.6852 104.881 19.4916 104.918 19.2867C104.997 19.1249 105.046 18.9491 105.062 18.7684Z" fill="white"/>
</svg>
